{
  "accessors": [
    {
      "bufferView": 2,
      "componentType": 5126,
      "count": 54,
      "max": [
        -34.297367095947266,
        -23.632144927978516,
        44.482688903808594
      ],
      "min": [
        -60.410888671875,
        -39.003761291503906,
        21.684471130371094
      ],
      "type": "VEC3"
    },
    {
      "bufferView": 2,
      "byteOffset": 648,
      "componentType": 5126,
      "count": 54,
      "max": [
        0.9238801002502441,
        1.0,
        0.0
      ],
      "min": [
        -0.13052599132061005,
        0.38268205523490906,
        0.0
      ],
      "type": "VEC3"
    },
    {
      "bufferView": 3,
      "componentType": 5126,
      "count": 54,
      "max": [
        -0.38268205523490906,
        0.9238801002502441,
        0.0001744791225064546,
        1.0
      ],
      "min": [
        -1.0,
        -0.13052599132061005,
        0.00015560990141239017,
        1.0
      ],
      "type": "VEC4"
    },
    {
      "bufferView": 1,
      "componentType": 5126,
      "count": 54,
      "max": [
        0.9980080127716064,
        0.6978009939193726
      ],
      "min": [
        0.0019920000340789557,
        0.0013930000131949782
      ],
      "type": "VEC2"
    },
    {
      "bufferView": 0,
      "componentType": 5125,
      "count": 156,
      "type": "SCALAR"
    },
    {
      "bufferView": 2,
      "byteOffset": 1296,
      "componentType": 5126,
      "count": 1471,
      "max": [
        -9.728702545166016,
        -49.28926467895508,
        33.18736267089844
      ],
      "min": [
        -17.712047576904297,
        -53.73244094848633,
        27.195255279541016
      ],
      "type": "VEC3"
    },
    {
      "bufferView": 2,
      "byteOffset": 18948,
      "componentType": 5126,
      "count": 1471,
      "max": [
        0.995215654373169,
        0.9984704852104187,
        1.0
      ],
      "min": [
        -0.9952155351638794,
        -0.995215654373169,
        -0.9999827742576599
      ],
      "type": "VEC3"
    },
    {
      "bufferView": 3,
      "byteOffset": 864,
      "componentType": 5126,
      "count": 1471,
      "max": [
        0.9555606842041016,
        0.9888224601745605,
        0.9500460624694824,
        1.0
      ],
      "min": [
        -0.9997875094413757,
        -0.9881930947303772,
        -0.9997272491455078,
        1.0
      ],
      "type": "VEC4"
    },
    {
      "bufferView": 1,
      "byteOffset": 432,
      "componentType": 5126,
      "count": 1471,
      "max": [
        0.991461992263794,
        0.9657490253448486
      ],
      "min": [
        0.0077240001410245895,
        0.011256000027060509
      ],
      "type": "VEC2"
    },
    {
      "bufferView": 0,
      "byteOffset": 624,
      "componentType": 5125,
      "count": 5628,
      "type": "SCALAR"
    },
    {
      "bufferView": 2,
      "byteOffset": 36600,
      "componentType": 5126,
      "count": 339,
      "max": [
        -33.85552978515625,
        -23.20697593688965,
        22.143333435058594
      ],
      "min": [
        -60.783905029296875,
        -39.066932678222656,
        12.951041221618652
      ],
      "type": "VEC3"
    },
    {
      "bufferView": 2,
      "byteOffset": 40668,
      "componentType": 5126,
      "count": 339,
      "max": [
        0.8767132759094238,
        0.9950577616691589,
        1.0
      ],
      "min": [
        -0.8526425957679749,
        -0.9426422119140625,
        -0.14685006439685822
      ],
      "type": "VEC3"
    },
    {
      "bufferView": 3,
      "byteOffset": 24400,
      "componentType": 5126,
      "count": 339,
      "max": [
        0.00476072309538722,
        0.8858336806297302,
        1.0,
        1.0
      ],
      "min": [
        -0.9996314644813538,
        -0.03404628485441208,
        -1.0,
        1.0
      ],
      "type": "VEC4"
    },
    {
      "bufferView": 1,
      "byteOffset": 12200,
      "componentType": 5126,
      "count": 339,
      "max": [
        0.9980080127716064,
        0.6030539870262146
      ],
      "min": [
        0.0019920000340789557,
        0.00369199994020164
      ],
      "type": "VEC2"
    },
    {
      "bufferView": 0,
      "byteOffset": 23136,
      "componentType": 5125,
      "count": 732,
      "type": "SCALAR"
    },
    {
      "bufferView": 2,
      "byteOffset": 44736,
      "componentType": 5126,
      "count": 10780,
      "max": [
        -3.827147960662842,
        -44.66670608520508,
        27.19525909423828
      ],
      "min": [
        -17.640541076660156,
        -59.84111785888672,
        1.9999999949504854e-06
      ],
      "type": "VEC3"
    },
    {
      "bufferView": 2,
      "byteOffset": 174096,
      "componentType": 5126,
      "count": 10780,
      "max": [
        1.0,
        0.9998801350593567,
        1.0
      ],
      "min": [
        -1.0,
        -0.9997266530990601,
        -0.9999743700027466
      ],
      "type": "VEC3"
    },
    {
      "bufferView": 3,
      "byteOffset": 29824,
      "componentType": 5126,
      "count": 10780,
      "max": [
        1.0,
        1.0,
        0.8039842844009399,
        1.0
      ],
      "min": [
        -1.0,
        -1.0,
        -0.9998434782028198,
        1.0
      ],
      "type": "VEC4"
    },
    {
      "bufferView": 1,
      "byteOffset": 14912,
      "componentType": 5126,
      "count": 10780,
      "max": [
        0.9955639839172363,
        0.9373930096626282
      ],
      "min": [
        0.0026320000179111958,
        0.003533999901264906
      ],
      "type": "VEC2"
    },
    {
      "bufferView": 0,
      "byteOffset": 26064,
      "componentType": 5125,
      "count": 40554,
      "type": "SCALAR"
    },
    {
      "bufferView": 2,
      "byteOffset": 303456,
      "componentType": 5126,
      "count": 36,
      "max": [
        -18.937570571899414,
        -41.63177490234375,
        3.8805348873138428
      ],
      "min": [
        -32.86284637451172,
        -58.883087158203125,
        3.88053297996521
      ],
      "type": "VEC3"
    },
    {
      "bufferView": 2,
      "byteOffset": 303888,
      "componentType": 5126,
      "count": 36,
      "max": [
        1.9999999949504854e-06,
        9.999999974752427e-07,
        -1.0
      ],
      "min": [
        -9.999999974752427e-07,
        -9.999999974752427e-07,
        -1.0
      ],
      "type": "VEC3"
    },
    {
      "bufferView": 3,
      "byteOffset": 202304,
      "componentType": 5126,
      "count": 36,
      "max": [
        -1.0,
        0.0,
        1.0000001111620804e-06,
        1.0
      ],
      "min": [
        -1.0,
        -1.9999999920083944e-12,
        -2.000000222324161e-06,
        1.0
      ],
      "type": "VEC4"
    },
    {
      "bufferView": 1,
      "byteOffset": 101152,
      "componentType": 5126,
      "count": 36,
      "max": [
        0.0,
        0.0
      ],
      "min": [
        0.0,
        0.0
      ],
      "type": "VEC2"
    },
    {
      "bufferView": 0,
      "byteOffset": 188280,
      "componentType": 5125,
      "count": 96,
      "type": "SCALAR"
    },
    {
      "bufferView": 2,
      "byteOffset": 304320,
      "componentType": 5126,
      "count": 2861,
      "max": [
        -18.813140869140625,
        -41.49022674560547,
        53.10566711425781
      ],
      "min": [
        -32.988258361816406,
        -59.38605499267578,
        -0.0034920000471174717
      ],
      "type": "VEC3"
    },
    {
      "bufferView": 2,
      "byteOffset": 338652,
      "componentType": 5126,
      "count": 2861,
      "max": [
        1.0,
        0.9977064728736877,
        1.0
      ],
      "min": [
        -1.0,
        -0.9804263710975647,
        -1.0
      ],
      "type": "VEC3"
    },
    {
      "bufferView": 3,
      "byteOffset": 202880,
      "componentType": 5126,
      "count": 2861,
      "max": [
        0.9857919812202454,
        0.998094379901886,
        0.9852153658866882,
        1.0
      ],
      "min": [
        -0.9952802658081055,
        -1.0,
        -1.0,
        1.0
      ],
      "type": "VEC4"
    },
    {
      "bufferView": 1,
      "byteOffset": 101440,
      "componentType": 5126,
      "count": 2861,
      "max": [
        0.9876959919929504,
        0.9948390126228333
      ],
      "min": [
        0.005493000149726868,
        0.004484999924898148
      ],
      "type": "VEC2"
    },
    {
      "bufferView": 0,
      "byteOffset": 188664,
      "componentType": 5125,
      "count": 6993,
      "type": "SCALAR"
    }
  ],
  "asset": {
    "extras": {
      "author": "panda.vc (https://sketchfab.com/panda.vc)",
      "license": "CC-BY-SA-4.0 (http://creativecommons.org/licenses/by-sa/4.0/)",
      "source": "https://sketchfab.com/3d-models/cyberpunk-assets-6f93fcda4eec47aab52eb90de81c22fa",
      "title": "Cyberpunk Assets"
    },
    "generator": "Sketchfab-12.67.0",
    "version": "2.0"
  },
  "bufferViews": [
    {
      "buffer": 0,
      "byteLength": 216636,
      "name": "floatBufferViews",
      "target": 34963
    },
    {
      "buffer": 0,
      "byteLength": 124328,
      "byteOffset": 216636,
      "byteStride": 8,
      "name": "floatBufferViews",
      "target": 34962
    },
    {
      "buffer": 0,
      "byteLength": 372984,
      "byteOffset": 340964,
      "byteStride": 12,
      "name": "floatBufferViews",
      "target": 34962
    },
    {
      "buffer": 0,
      "byteLength": 248656,
      "byteOffset": 713948,
      "byteStride": 16,
      "name": "floatBufferViews",
      "target": 34962
    }
  ],
  "buffers": [
    {
      "byteLength": 962604,
      "uri": "scene.bin"
    }
  ],
  "images": [
    {
      "uri": "textures/1001_baseColor.jpeg"
    },
    {
      "uri": "textures/1001_metallicRoughness.png"
    },
    {
      "uri": "textures/1001_emissive.jpeg"
    },
    {
      "uri": "textures/1001_normal.png"
    },
    {
      "uri": "textures/1002_baseColor.png"
    },
    {
      "uri": "textures/1002_metallicRoughness.png"
    },
    {
      "uri": "textures/1002_emissive.jpeg"
    },
    {
      "uri": "textures/1002_normal.png"
    },
    {
      "uri": "textures/1003_baseColor.jpeg"
    },
    {
      "uri": "textures/1003_metallicRoughness.png"
    },
    {
      "uri": "textures/1003_emissive.jpeg"
    },
    {
      "uri": "textures/1003_normal.png"
    },
    {
      "uri": "textures/1011_baseColor.png"
    },
    {
      "uri": "textures/1011_metallicRoughness.png"
    },
    {
      "uri": "textures/1011_emissive.jpeg"
    },
    {
      "uri": "textures/1011_normal.png"
    },
    {
      "uri": "textures/1012_baseColor.jpeg"
    },
    {
      "uri": "textures/1012_metallicRoughness.png"
    },
    {
      "uri": "textures/1012_emissive.jpeg"
    },
    {
      "uri": "textures/1012_normal.png"
    }
  ],
  "materials": [
    {
      "doubleSided": true,
      "emissiveFactor": [
        1.0,
        1.0,
        1.0
      ],
      "emissiveTexture": {
        "index": 2
      },
      "name": "1001",
      "normalTexture": {
        "index": 3
      },
      "occlusionTexture": {
        "index": 1
      },
      "pbrMetallicRoughness": {
        "baseColorTexture": {
          "index": 0
        },
        "metallicRoughnessTexture": {
          "index": 1
        }
      }
    },
    {
      "alphaMode": "BLEND",
      "doubleSided": true,
      "emissiveFactor": [
        1.0,
        1.0,
        1.0
      ],
      "emissiveTexture": {
        "index": 6
      },
      "name": "1002",
      "normalTexture": {
        "index": 7
      },
      "occlusionTexture": {
        "index": 5
      },
      "pbrMetallicRoughness": {
        "baseColorTexture": {
          "index": 4
        },
        "metallicRoughnessTexture": {
          "index": 5
        }
      }
    },
    {
      "doubleSided": true,
      "emissiveFactor": [
        1.0,
        1.0,
        1.0
      ],
      "emissiveTexture": {
        "index": 10
      },
      "name": "1003",
      "normalTexture": {
        "index": 11
      },
      "occlusionTexture": {
        "index": 9
      },
      "pbrMetallicRoughness": {
        "baseColorTexture": {
          "index": 8
        },
        "metallicRoughnessTexture": {
          "index": 9
        }
      }
    },
    {
      "alphaMode": "BLEND",
      "doubleSided": true,
      "emissiveFactor": [
        1.0,
        1.0,
        1.0
      ],
      "emissiveTexture": {
        "index": 14
      },
      "name": "1011",
      "normalTexture": {
        "index": 15
      },
      "occlusionTexture": {
        "index": 13
      },
      "pbrMetallicRoughness": {
        "baseColorTexture": {
          "index": 12
        },
        "metallicRoughnessTexture": {
          "index": 13
        }
      }
    },
    {
      "doubleSided": true,
      "emissiveFactor": [
        1.0,
        1.0,
        1.0
      ],
      "emissiveTexture": {
        "index": 18
      },
      "name": "1012",
      "normalTexture": {
        "index": 19
      },
      "occlusionTexture": {
        "index": 17
      },
      "pbrMetallicRoughness": {
        "baseColorTexture": {
          "index": 16
        },
        "metallicRoughnessTexture": {
          "index": 17
        }
      }
    }
  ],
  "meshes": [
    {
      "name": "Object_0",
      "primitives": [
        {
          "attributes": {
            "NORMAL": 1,
            "POSITION": 0,
            "TANGENT": 2,
            "TEXCOORD_0": 3
          },
          "indices": 4,
          "material": 1,
          "mode": 4
        }
      ]
    },
    {
      "name": "Object_1",
      "primitives": [
        {
          "attributes": {
            "NORMAL": 6,
            "POSITION": 5,
            "TANGENT": 7,
            "TEXCOORD_0": 8
          },
          "indices": 9,
          "material": 2,
          "mode": 4
        }
      ]
    },
    {
      "name": "Object_2",
      "primitives": [
        {
          "attributes": {
            "NORMAL": 11,
            "POSITION": 10,
            "TANGENT": 12,
            "TEXCOORD_0": 13
          },
          "indices": 14,
          "material": 3,
          "mode": 4
        }
      ]
    },
    {
      "name": "Object_3",
      "primitives": [
        {
          "attributes": {
            "NORMAL": 16,
            "POSITION": 15,
            "TANGENT": 17,
            "TEXCOORD_0": 18
          },
          "indices": 19,
          "material": 0,
          "mode": 4
        }
      ]
    },
    {
      "name": "Object_4",
      "primitives": [
        {
          "attributes": {
            "NORMAL": 21,
            "POSITION": 20,
            "TANGENT": 22,
            "TEXCOORD_0": 23
          },
          "indices": 24,
          "material": 0,
          "mode": 4
        }
      ]
    },
    {
      "name": "Object_5",
      "primitives": [
        {
          "attributes": {
            "NORMAL": 26,
            "POSITION": 25,
            "TANGENT": 27,
            "TEXCOORD_0": 28
          },
          "indices": 29,
          "material": 4,
          "mode": 4
        }
      ]
    }
  ],
  "nodes": [
    {
      "children": [
        1
      ],
      "matrix": [
        1.0,
        0.0,
        0.0,
        0.0,
        0.0,
        2.220446049250313e-16,
        -1.0,
        0.0,
        0.0,
        1.0,
        2.220446049250313e-16,
        0.0,
        0.0,
        0.0,
        0.0,
        1.0
      ],
      "name": "Sketchfab_model"
    },
    {
      "children": [
        2,
        3,
        4,
        5,
        6,
        7
      ],
      "name": "entregasi.obj.cleaner.materialmerger.gles"
    },
    {
      "mesh": 0,
      "name": "Object_2"
    },
    {
      "mesh": 1,
      "name": "Object_3"
    },
    {
      "mesh": 2,
      "name": "Object_4"
    },
    {
      "mesh": 3,
      "name": "Object_5"
    },
    {
      "mesh": 4,
      "name": "Object_6"
    },
    {
      "mesh": 5,
      "name": "Object_7"
    }
  ],
  "samplers": [
    {
      "magFilter": 9729,
      "minFilter": 9987,
      "wrapS": 10497,
      "wrapT": 10497
    }
  ],
  "scene": 0,
  "scenes": [
    {
      "name": "Sketchfab_Scene",
      "nodes": [
        0
      ]
    }
  ],
  "textures": [
    {
      "sampler": 0,
      "source": 0
    },
    {
      "sampler": 0,
      "source": 1
    },
    {
      "sampler": 0,
      "source": 2
    },
    {
      "sampler": 0,
      "source": 3
    },
    {
      "sampler": 0,
      "source": 4
    },
    {
      "sampler": 0,
      "source": 5
    },
    {
      "sampler": 0,
      "source": 6
    },
    {
      "sampler": 0,
      "source": 7
    },
    {
      "sampler": 0,
      "source": 8
    },
    {
      "sampler": 0,
      "source": 9
    },
    {
      "sampler": 0,
      "source": 10
    },
    {
      "sampler": 0,
      "source": 11
    },
    {
      "sampler": 0,
      "source": 12
    },
    {
      "sampler": 0,
      "source": 13
    },
    {
      "sampler": 0,
      "source": 14
    },
    {
      "sampler": 0,
      "source": 15
    },
    {
      "sampler": 0,
      "source": 16
    },
    {
      "sampler": 0,
      "source": 17
    },
    {
      "sampler": 0,
      "source": 18
    },
    {
      "sampler": 0,
      "source": 19
    }
  ]
}
